<?xml version="1.0" encoding="UTF-8"?>
<svg width="32px" height="32px" viewBox="0 0 32 32" version="1.1" xmlns="http://www.w3.org/2000/svg" xmlns:xlink="http://www.w3.org/1999/xlink">
    <!-- Generator: Sketch 63.1 (92452) - https://sketch.com -->
    <title>contract</title>
    <desc>Created with Sketch.</desc>
    <g id="1200" stroke="none" stroke-width="1" fill="none" fill-rule="evenodd">
        <g id="01_Home_1200-Landing" transform="translate(-1054.000000, -3291.000000)" fill="#3C3C3C" fill-rule="nonzero">
            <g id="2" transform="translate(199.000000, 3144.000000)">
                <g id="3" transform="translate(733.000000, 115.000000)">
                    <g id="contract" transform="translate(122.000000, 32.000000)">
                        <path d="M31.1755121,10.0704375 C30.0788723,8.9738125 28.2944339,8.973875 27.197419,10.0706875 C26.8600201,10.408375 24.7058057,12.5641875 24.3767199,12.8935625 L24.3767199,5.464125 C24.3767199,4.712875 24.0841368,4.006625 23.5528493,3.4754375 L20.9010997,0.82375 C20.3698747,0.2925 19.6635124,0 18.9122094,0 L2.81269845,0 C1.26177653,0 0,1.2616875 0,2.8125 L0,29.1875 C0,30.7383125 1.26177653,32 2.81269845,32 L21.5640215,32 C23.1149434,32 24.3767199,30.7383125 24.3767199,29.1875 L24.3767199,20.8519375 L31.1754496,14.0479375 C32.2747147,12.9488125 32.2749647,11.1696875 31.1755121,10.0704375 Z M18.7513855,1.875 C18.928523,1.875 19.2698596,1.8443125 19.5751937,2.1495625 L22.2270058,4.80125 C22.5245268,5.0988125 22.5016501,5.424875 22.5016501,5.625 L18.7513855,5.625 L18.7513855,1.875 Z M22.5015876,29.1875 C22.5015876,29.7044375 22.081058,30.125 21.5640215,30.125 L2.81269845,30.125 C2.29572448,30.125 1.8751323,29.7044375 1.8751323,29.1875 L1.8751323,2.8125 C1.8751323,2.2955625 2.29572448,1.875 2.81269845,1.875 L16.8761907,1.875 L16.8761907,6.5625 C16.8761907,7.08025 17.2959703,7.5 17.8137569,7.5 L22.5015876,7.5 L22.5015876,14.7701875 C22.5015876,14.7701875 19.7355175,17.5384375 19.7353925,17.5385 L18.4101115,18.86375 C18.3072292,18.966625 18.2295987,19.092125 18.1835955,19.2301875 L16.8576269,23.2076875 C16.7453065,23.5445625 16.8330002,23.916 17.0841429,24.1670625 C17.3355981,24.4185 17.7071869,24.50575 18.0435856,24.3935625 L22.0213663,23.06775 C22.1594385,23.02175 22.2849473,22.9441875 22.3878296,22.84125 L22.5015876,22.7275 L22.5015876,29.1875 Z M20.3989393,19.5266875 L21.7248453,20.8525 L21.2183721,21.3589375 L19.2295443,22.0218125 L19.892466,20.0330625 L20.3989393,19.5266875 Z M23.0505014,19.526375 L21.7245953,18.2005625 C22.4306451,17.494 25.5664289,14.35575 26.2314758,13.6901875 L27.5573819,15.016 L23.0505014,19.526375 Z M29.8492936,12.722375 L28.8827879,13.689625 L27.5568818,12.3638125 L28.5237,11.39625 C28.8894758,11.0306875 29.4841428,11.03075 29.8496686,11.39625 C30.2151319,11.761875 30.2170695,12.3545625 29.8492936,12.722375 Z" id="Shape"></path>
                        <path d="M18.0625,9 L4.9375,9 C4.41975,9 4,9.44773333 4,10 C4,10.5522667 4.41975,11 4.9375,11 L18.0625,11 C18.58025,11 19,10.5522667 19,10 C19,9.44773333 18.58025,9 18.0625,9 Z" id="Path"></path>
                        <path d="M14.0833333,13 L4.91666667,13 C4.41042222,13 4,13.4477333 4,14 C4,14.5522667 4.41042222,15 4.91666667,15 L14.0833333,15 C14.5895778,15 15,14.5522667 15,14 C15,13.4477333 14.5895778,13 14.0833333,13 Z" id="Path"></path>
                        <path d="M14.0833333,17 L4.91666667,17 C4.41042222,17 4,17.4477333 4,18 C4,18.5522667 4.41042222,19 4.91666667,19 L14.0833333,19 C14.5895778,19 15,18.5522667 15,18 C15,17.4477333 14.5895778,17 14.0833333,17 Z" id="Path"></path>
                        <path d="M14.0833333,21 L4.91666667,21 C4.41042222,21 4,21.4477333 4,22 C4,22.5522667 4.41042222,23 4.91666667,23 L14.0833333,23 C14.5895778,23 15,22.5522667 15,22 C15,21.4477333 14.5895778,21 14.0833333,21 Z" id="Path"></path>
                        <path d="M18,26 L12,26 C11.4477333,26 11,26.4477333 11,27 C11,27.5522667 11.4477333,28 12,28 L18,28 C18.5522667,28 19,27.5522667 19,27 C19,26.4477333 18.5522667,26 18,26 Z" id="Path"></path>
                    </g>
                </g>
            </g>
        </g>
    </g>
</svg>