<?xml version="1.0" encoding="UTF-8"?>
<svg width="39px" height="30px" viewBox="0 0 39 30" version="1.1" xmlns="http://www.w3.org/2000/svg" xmlns:xlink="http://www.w3.org/1999/xlink">
    <!-- Generator: Sketch 63.1 (92452) - https://sketch.com -->
    <title>credit-card (1)</title>
    <desc>Created with Sketch.</desc>
    <g id="1200" stroke="none" stroke-width="1" fill="none" fill-rule="evenodd">
        <g id="01_Home_1200-Landing" transform="translate(-684.000000, -3291.000000)" fill="#3C3C3C" fill-rule="nonzero">
            <g id="2" transform="translate(199.000000, 3144.000000)">
                <g id="2-(hover)" transform="translate(328.000000, 85.000000)">
                    <g id="credit-card-(1)" transform="translate(157.000000, 61.933594)">
                        <path d="M35.7441094,8.93045666 L31.7755547,8.93045666 L31.7755547,3.32462281 C31.7755547,1.52804537 30.314959,0.06640625 28.5196641,0.06640625 L3.25589063,0.06640625 C1.4605957,0.06640625 0,1.5281216 0,3.32469904 L0,17.9438344 C0,19.7404118 1.4605957,21.2020509 3.25589063,21.2020509 L7.22459766,21.2020509 L7.22459766,26.8081897 C7.22459766,28.6047671 8.68519336,30.0664062 10.4804883,30.0664062 L35.7441094,30.0664062 C37.5394043,30.0664062 39,28.6047671 39,26.8081897 L39,12.1886732 C39,10.3920958 37.5394043,8.93045666 35.7441094,8.93045666 Z M1.86049805,3.32469904 C1.86049805,2.55473728 2.48647852,1.92830962 3.25589062,1.92830962 L28.5196641,1.92830962 C29.2890762,1.92830962 29.9150566,2.55473728 29.9150566,3.32469904 L29.9150566,4.62443351 L1.86049805,4.62443351 L1.86049805,3.32469904 Z M7.22459766,12.1886732 L7.22459766,19.3401476 L3.25589062,19.3401476 C2.48647852,19.3401476 1.86049805,18.7137199 1.86049805,17.9437581 L1.86049805,10.798077 L7.53682617,10.798077 C7.336875,11.2200657 7.22459766,11.6915254 7.22459766,12.1886732 Z M1.86049805,8.93624986 L1.86049805,6.48633688 L29.9150566,6.48633688 L29.9150566,8.93045666 L10.4804883,8.93045666 C10.4175703,8.93045666 10.3552617,8.93266722 10.2932578,8.93624986 L1.86049805,8.93624986 Z M35.7441094,28.2045791 L10.4804883,28.2045791 C9.71107617,28.2045791 9.0850957,27.5781515 9.0850957,26.8081897 L9.0850957,12.1886732 C9.0850957,11.4571295 9.65044336,10.8563139 10.3666113,10.798077 L30.8450391,10.798077 C30.8793926,10.798077 30.9131367,10.7959427 30.9464238,10.7922838 L35.7440332,10.7922838 C36.5134453,10.7922838 37.139502,11.4187115 37.139502,12.1886732 L37.139502,26.8081897 L37.139502,26.8081897 C37.139502,27.5781515 36.5135215,28.2045791 35.7441094,28.2045791 Z" id="Shape"></path>
                        <path d="M26.3844043,15.0669413 C25.2952457,15.0669413 24.2937404,15.4374 23.5035281,16.0547294 C22.6934017,15.4185217 21.6838994,15.0664062 20.6160661,15.0664062 C18.0707498,15.0664062 16,17.0850893 16,19.5664062 C16,22.0477232 18.0707498,24.0664062 20.6160661,24.0664062 C21.6839778,24.0664062 22.6934017,23.7142908 23.5035281,23.078236 C24.2937404,23.6955653 25.2952457,24.0661005 26.3844043,24.0661005 C28.9294854,24.0661005 31,22.0475704 31,19.5664827 C31,17.085395 28.9294854,15.0669413 26.3844043,15.0669413 Z M22.2872801,21.6345398 C21.8161633,21.9981963 21.2326967,22.1995143 20.6159877,22.1995143 C19.1265876,22.1995907 17.9148869,21.0183569 17.9148869,19.5664827 C17.9148869,18.114532 19.1265876,16.9332982 20.6159877,16.9332982 C21.2326967,16.9332982 21.8160849,17.1346927 22.2872801,17.4982727 C21.9567379,18.1179714 21.7688086,18.8209793 21.7688086,19.5663298 C21.7688086,20.3117567 21.9568163,21.0147647 22.2872801,21.6345398 Z M26.3844043,22.1992085 C24.8953178,22.1992085 23.6838524,21.0181276 23.6838524,19.5664063 C23.6838524,18.1147613 24.8953962,16.9337568 26.3844043,16.9337568 C27.8734908,16.9337568 29.0849563,18.1148377 29.0849563,19.5664063 C29.0849563,21.0182041 27.8734908,22.1992085 26.3844043,22.1992085 Z" id="Shape"></path>
                    </g>
                </g>
            </g>
        </g>
    </g>
</svg>