<?xml version="1.0" encoding="UTF-8"?>
<svg width="28px" height="34px" viewBox="0 0 28 34" version="1.1" xmlns="http://www.w3.org/2000/svg" xmlns:xlink="http://www.w3.org/1999/xlink">
    <!-- Generator: Sketch 63.1 (92452) - https://sketch.com -->
    <title>doctor</title>
    <desc>Created with Sketch.</desc>
    <g id="1200" stroke="none" stroke-width="1" fill="none" fill-rule="evenodd">
        <g id="01_Home_1200-Landing" transform="translate(-1053.000000, -3573.000000)" fill="#3C3C3C" fill-rule="nonzero">
            <g id="2" transform="translate(199.000000, 3144.000000)">
                <g id="6" transform="translate(733.000000, 398.000000)">
                    <g id="doctor" transform="translate(121.000000, 31.000000)">
                        <path d="M21.15869,17.9992187 C23.0645266,16.0922894 24.2497406,13.43324 24.2497406,10.4956152 C24.2498054,4.70828792 19.6518158,0 14.0001297,0 C8.34844358,0 3.75038911,4.70828792 3.75038911,10.4955488 C3.75038911,13.4331736 4.93560311,16.092223 6.84143969,17.9991523 C3.05064851,18.1097192 0,21.3016145 0,25.2095711 L0,34 L28,34 L28,25.2096375 C28,21.3016809 24.9494812,18.1097856 21.15869,17.9992187 Z M14.0001297,1.99226169 C16.9592737,1.99226169 19.5614137,3.58575229 21.0324254,5.97844523 C19.8793126,6.78780776 18.50869,7.22795011 17.096952,7.22795011 C15.2357977,7.22795011 13.4861219,6.48545893 12.1705577,5.13734038 L11.5300908,4.48104485 L10.8453307,5.08866441 C9.88566796,5.94032789 8.65674449,6.40935707 7.38508431,6.40935707 C7.16893645,6.40935707 6.95415045,6.39581014 6.74163424,6.36938035 C8.16128405,3.76086625 10.8825551,1.99226169 14.0001297,1.99226169 Z M5.69597925,10.4955488 C5.69597925,9.72270985 5.79779507,8.97384365 5.98735409,8.26163383 C6.44571984,8.35373966 6.91290532,8.40148594 7.3849546,8.40148594 C8.83249027,8.40148594 10.2396887,7.95715999 11.4280156,7.13650835 C13.020428,8.48595502 15.0034371,9.2202118 17.0968872,9.2202118 C18.7988975,9.2202118 20.4551232,8.72123329 21.8752918,7.79698749 C22.1532425,8.64526424 22.3040856,9.55264278 22.3040856,10.4955488 C22.3040856,14.8886714 19.0337873,18.514334 14.8551232,18.9540115 C14.8496757,18.9546092 14.8442931,18.9551404 14.8388457,18.9556717 C14.7786641,18.9619139 14.7182231,18.9672928 14.6576524,18.9722069 C14.6363813,18.9738671 14.6150454,18.975328 14.5937095,18.9768554 C14.5450713,18.9803749 14.4963684,18.9836952 14.4475357,18.9863515 C14.4085603,18.9884101 14.3694553,18.9899375 14.3303502,18.9914648 C14.2963035,18.9928593 14.2623217,18.9945195 14.2281453,18.9954492 C14.1523346,18.9975078 14.0763294,18.9987695 14.0001297,18.9987695 C13.92393,18.9987695 13.8479248,18.9975078 13.7721141,18.9954492 C13.7379377,18.9945195 13.7038911,18.9928593 13.6698444,18.9914648 C13.6308042,18.9899375 13.5917639,18.9884765 13.5527886,18.9863515 C13.5038911,18.9836952 13.4551232,18.9803749 13.4064851,18.9768554 C13.385214,18.975328 13.3639429,18.9738671 13.3426719,18.9722069 C13.2820363,18.9672928 13.2215305,18.9618475 13.161284,18.9556717 C13.1559014,18.9551404 13.1505837,18.9545428 13.145201,18.9540115 C8.96640726,18.5144004 5.69597925,14.8887378 5.69597925,10.4955488 Z M8.8804799,25.7813312 C8.8804799,26.2042078 8.54448768,26.5483264 8.13145266,26.5483264 C7.71841764,26.5483264 7.38249027,26.2042742 7.38249027,25.7813312 C7.38249027,25.3584545 7.71848249,25.0144024 8.13145266,25.0144024 C8.54442283,25.0144024 8.8804799,25.3584545 8.8804799,25.7813312 Z M1.94571984,32.0078711 L1.94571984,25.2096375 C1.94571984,22.3305833 4.23320363,19.9882265 7.04481193,19.9882265 L7.15869001,19.9882265 L7.15869001,23.2088094 C6.15239948,23.6092407 5.43690013,24.6109829 5.43690013,25.7812648 C5.43690013,27.3027043 6.64571984,28.5405216 8.13151751,28.5405216 C9.61731518,28.5405216 10.8261349,27.3027043 10.8261349,25.7812648 C10.8261349,24.6109829 10.1105707,23.6091743 9.10434501,23.2088094 L9.10434501,19.9882265 L9.62405966,19.9882265 C10.7575875,20.5378068 11.9583009,20.8629331 13.2051881,20.9597537 C13.2199741,20.9609491 13.2348249,20.9617459 13.249546,20.9628749 C13.3202983,20.9680546 13.3910506,20.9730351 13.4621271,20.9766874 C13.5016861,20.9788124 13.5414397,20.9800077 13.5810636,20.9816015 C13.629572,20.9835937 13.6779507,20.9859843 13.7265888,20.9873125 C13.8175097,20.9897695 13.9086252,20.9910976 14.0001297,20.9910976 C14.0916342,20.9910976 14.1828794,20.9897031 14.2738003,20.9873125 C14.3220493,20.9860507 14.3701038,20.9836601 14.4182231,20.9816679 C14.4582361,20.9800077 14.4983139,20.9788124 14.5381971,20.9766874 C14.609144,20.9729686 14.6798314,20.9680546 14.7505188,20.9628749 C14.7653696,20.9617459 14.7803502,20.9609491 14.7951362,20.9597537 C16.0419585,20.8629331 17.2427367,20.5378732 18.3762646,19.9882265 L18.8959144,19.9882265 L18.8959144,21.7972726 C16.7756161,22.2572041 15.1794423,24.188239 15.1794423,26.4943379 L15.1794423,29.0516525 L14.5180934,29.0516525 L14.5180934,31.0439142 L17.786511,31.0439142 L17.786511,29.0516525 L17.1250324,29.0516525 L17.1250324,26.4943379 C17.1250324,24.9452068 18.3558366,23.6849441 19.868677,23.6849441 C21.3815175,23.6849441 22.6123217,24.9452732 22.6123217,26.4943379 L22.6123217,29.0516525 L21.9509079,29.0516525 L21.9509079,31.0439142 L25.2193256,31.0439142 L25.2193256,29.0516525 L24.5579767,29.0516525 L24.5579767,26.4943379 C24.5579767,24.1881726 22.9618677,22.2572041 20.8415045,21.7972726 L20.8415045,19.9882265 L20.9553826,19.9882265 C23.7670558,19.9882265 26.0544747,22.3305833 26.0544747,25.2096375 L26.0544747,32.0078711 L1.94571984,32.0078711 L1.94571984,32.0078711 Z" id="Shape"></path>
                    </g>
                </g>
            </g>
        </g>
    </g>
</svg>