<?xml version="1.0" encoding="UTF-8"?>
<svg width="34px" height="35px" viewBox="0 0 34 35" version="1.1" xmlns="http://www.w3.org/2000/svg" xmlns:xlink="http://www.w3.org/1999/xlink">
    <!-- Generator: Sketch 63.1 (92452) - https://sketch.com -->
    <title>event</title>
    <desc>Created with Sketch.</desc>
    <g id="1200" stroke="none" stroke-width="1" fill="none" fill-rule="evenodd">
        <g id="01_Home_1200-Landing" transform="translate(-686.000000, -3572.000000)" fill="#3C3C3C" fill-rule="nonzero">
            <g id="2" transform="translate(199.000000, 3144.000000)">
                <g id="5" transform="translate(368.000000, 398.000000)">
                    <g id="event" transform="translate(119.000000, 30.000000)">
                        <path d="M30.7862097,3.7933871 C30.7147581,3.79048387 30.6432258,3.79 30.5716935,3.79201613 L27.8751613,3.79201613 L27.8751613,1.47467742 C27.8752419,0.547741935 26.9904032,0 26.0634677,0 L23.5776613,0 C22.6507258,0 21.9766129,0.547741935 21.9766129,1.47467742 L21.9766129,3.79193548 L11.8646774,3.79193548 L11.8646774,1.47467742 C11.8646774,0.547741935 11.1905645,0 10.263629,0 L7.77774194,0 C6.8508871,0 5.96604839,0.547741935 5.96604839,1.47467742 L5.96604839,3.79193548 L3.26959677,3.79193548 C1.54830645,3.74395161 0.114032258,5.10048387 0.0660483871,6.82169355 C0.0640322581,6.89314516 0.0648236148,6.96475806 0.0674193548,7.03620968 L0.0674193548,31.3890323 C0.0674193548,33.2429032 1.41564516,34.9703226 3.26951613,34.9703226 L30.5717742,34.9703226 C32.4256452,34.9703226 33.773871,33.2429032 33.773871,31.3890323 L33.773871,7.03620968 C33.8443548,5.31572581 32.5066935,3.86387097 30.7862097,3.7933871 Z M23.5776613,1.68532258 L26.1899194,1.68532258 L26.1899194,6.31991935 L23.5776613,6.31991935 L23.5776613,1.68532258 Z M7.77782258,1.68532258 L10.1794355,1.68532258 L10.1794355,6.31991935 L7.77782258,6.31991935 L7.77782258,1.68532258 Z M32.0885484,31.3890323 C32.0885484,32.3159677 31.4987097,33.285 30.5717742,33.285 L3.26959677,33.285 C2.34266129,33.285 1.75282258,32.3159677 1.75282258,31.3890323 L1.75282258,13.4825806 L32.0885484,13.4825806 L32.0885484,31.3890323 Z M32.0885484,7.03620968 L32.0885484,11.7972581 L1.75274194,11.7972581 L1.75274194,7.03620968 C1.68137097,6.24830645 2.26225806,5.55169355 3.05016129,5.48032258 C3.12306452,5.47370968 3.19645161,5.47274194 3.26951613,5.47733871 L5.96604839,5.47733871 L5.96604839,6.40427419 C5.96604839,7.33120968 6.85080645,8.00532258 7.77774194,8.00532258 L10.263629,8.00532258 C11.1242742,8.02895161 11.8410484,7.35032258 11.8646774,6.48967742 C11.8654839,6.46120968 11.8654839,6.43274194 11.8646774,6.40427419 L11.8646774,5.47725806 L21.9766129,5.47725806 L21.9766129,6.40419355 C21.9529839,7.26483871 22.6316129,7.9816129 23.4922581,8.00524194 C23.5207258,8.00604839 23.5491935,8.00604839 23.5776613,8.00524194 L26.0635484,8.00524194 C26.9904839,8.00524194 27.8752419,7.33112903 27.8752419,6.40419355 L27.8752419,5.47725806 L30.5717742,5.47725806 C31.361371,5.4275 32.0417742,6.02725806 32.0915323,6.81685484 C32.096129,6.88991935 32.0951613,6.96330645 32.0885484,7.03620968 Z" id="Shape"></path>
                        <path d="M12.243871,24.9848387 L11.4854839,29.1981452 C11.4554839,29.378871 11.4851613,29.5645161 11.5700806,29.7268548 C11.7858065,30.1391935 12.295,30.298629 12.7073387,30.0829032 L16.4992742,28.1026613 L20.2912097,30.0829032 L20.6704032,30.1671774 C20.8532258,30.1704032 21.0316935,30.1108871 21.1759677,29.998629 C21.4278226,29.8146774 21.5574194,29.5067742 21.5130645,29.1980645 L20.7546774,24.9847581 L23.8304032,22.0354839 C24.0504839,21.7976613 24.1303226,21.4621774 24.0410484,21.1507258 C23.9275806,20.8628226 23.6719355,20.6551613 23.3669355,20.6029839 L19.153629,19.9709677 L17.2576613,16.1368548 C17.175,15.9662097 17.0372581,15.8283871 16.8666129,15.7458065 C16.4477419,15.5429839 15.9437903,15.7180645 15.7408871,16.1368548 L13.8449194,19.9709677 L9.6316129,20.6029839 C9.3266129,20.6550806 9.07096774,20.8628226 8.9575,21.1507258 C8.86822581,21.4621774 8.94814516,21.7976613 9.16814516,22.0354839 L12.243871,24.9848387 Z M14.5612097,21.5720968 C14.8258065,21.5325 15.05,21.356371 15.1510484,21.108629 L16.4992742,18.4120968 L17.8475,21.108629 C17.948629,21.356371 18.1727419,21.5325 18.4373387,21.5720968 L21.4287903,21.9933871 L19.28,24.0579032 C19.0798387,24.2560484 18.9859677,24.5376613 19.0271774,24.8162903 L19.5327419,27.8077419 L16.8783871,26.3752419 L16.4991935,26.2909677 L16.12,26.3752419 L13.4656452,27.8077419 L13.9712097,24.8162903 C14.0125,24.5376613 13.9185484,24.2560484 13.7183871,24.0579032 L11.5695968,21.9933871 L14.5612097,21.5720968 Z" id="Shape"></path>
                    </g>
                </g>
            </g>
        </g>
    </g>
</svg>