<?xml version="1.0" encoding="UTF-8"?>
<svg width="28px" height="25px" viewBox="0 0 28 25" version="1.1" xmlns="http://www.w3.org/2000/svg" xmlns:xlink="http://www.w3.org/1999/xlink">
    <!-- Generator: Sketch 63.1 (92452) - https://sketch.com -->
    <title>graph</title>
    <desc>Created with Sketch.</desc>
    <g id="1200" stroke="none" stroke-width="1" fill="none" fill-rule="evenodd">
        <g id="01_Home_1200-Landing" transform="translate(-323.000000, -3577.000000)" fill="#3C3C3C" fill-rule="nonzero">
            <g id="2" transform="translate(199.000000, 3144.000000)">
                <g id="4" transform="translate(0.000000, 398.000000)">
                    <g id="graph" transform="translate(124.000000, 35.000000)">
                        <path d="M27.0666667,23.1178554 L3.03184,23.1178554 L6.941536,15.2172145 L10.9965333,17.876459 C11.254208,18.0454756 11.5780373,18.0757405 11.862144,17.9570901 C12.1463253,17.8387409 12.3543467,17.5866841 12.4182613,17.2835082 L14.0025387,9.77939759 L18.4573013,12.0765175 C18.83392,12.2708301 19.292896,12.1853054 19.5758827,11.8682017 L23.2842027,7.71400737 L23.400832,8.97210812 C23.4459307,9.45988472 23.8527893,9.82577364 24.329088,9.82577364 C24.3581333,9.82577364 24.3874773,9.82441849 24.4169707,9.82163292 C24.9302293,9.77329944 25.3073707,9.31465844 25.2595093,8.79714396 L24.9283627,5.22129504 C24.8802773,4.70378055 24.4259307,4.32328619 23.9122987,4.37177024 L20.3659307,4.70551212 C19.8527467,4.7538456 19.475456,5.2124866 19.5233173,5.7299258 C19.5714773,6.24744028 20.0250027,6.62785935 20.539456,6.57945059 L21.8999573,6.45138947 L18.668608,10.0713559 L13.7683093,7.54446378 C13.5098133,7.41105737 13.204352,7.40676608 12.942272,7.53256863 C12.6800427,7.65837118 12.490912,7.90003855 12.430432,8.18642567 L10.8755733,15.5517093 L7.08250667,13.064267 C6.85947733,12.9179867 6.58507733,12.8745468 6.32852267,12.9450896 C6.07181867,13.0154818 5.857152,13.1929304 5.73850667,13.4328662 L1.86666667,21.2570166 L1.86666667,0.94107231 C1.86666667,0.421299252 1.44875733,0 0.933333333,0 C0.417909333,0 0,0.421299252 0,0.94107231 L0,24.0589277 C0,24.5786255 0.417909333,25 0.933333333,25 L27.0666667,25 C27.582016,25 28,24.5786255 28,24.0589277 C28,23.5392299 27.582016,23.1178554 27.0666667,23.1178554 Z" id="Path"></path>
                    </g>
                </g>
            </g>
        </g>
    </g>
</svg>