<?xml version="1.0" encoding="UTF-8"?>
<svg width="34px" height="31px" viewBox="0 0 34 31" version="1.1" xmlns="http://www.w3.org/2000/svg" xmlns:xlink="http://www.w3.org/1999/xlink">
    <!-- Generator: Sketch 63.1 (92452) - https://sketch.com -->
    <title>login</title>
    <desc>Created with Sketch.</desc>
    <g id="1200" stroke="none" stroke-width="1" fill="none" fill-rule="evenodd">
        <g id="01_Home_1200-Landing" transform="translate(-316.000000, -3291.000000)" fill="#3C3C3C" fill-rule="nonzero">
            <g id="2" transform="translate(199.000000, 3144.000000)">
                <g id="1" transform="translate(2.000000, 55.000000)">
                    <g id="login" transform="translate(115.000000, 92.000000)">
                        <path d="M13.7475113,0 C11.6766028,0.0151579269 10.004969,1.65908006 10,3.68509667 L10,6.94977489 C10,7.4548491 10.4182738,7.86411364 10.9344664,7.86411364 C11.450659,7.86411364 11.8692251,7.4548491 11.8692251,6.94977489 L11.8692251,3.69453469 C11.8709789,2.67723638 12.7081111,1.84984132 13.7475113,1.83811538 L30.2898803,1.83811538 C31.317881,1.83811538 32.1307527,2.68867634 32.1307527,3.69453469 L32.1307527,27.3420733 C32.1380602,27.8239815 31.9489454,28.2887298 31.605499,28.6336446 C31.2617604,28.9788453 30.7914581,29.1756126 30.2989413,29.1801886 L13.7475113,29.1801886 C12.7113264,29.1770426 11.8724404,28.3559396 11.8692251,27.3420733 L11.8692251,24.1414588 C11.8692251,23.6366706 11.450659,23.2271201 10.9344664,23.2271201 C10.4182738,23.2271201 10,23.6366706 10,24.1414588 L10,27.3332073 C10.0093534,29.354362 11.6818641,30.9905621 13.7475113,31 L30.2898803,31 C32.346174,30.991992 34.0069929,29.354648 34.0001086,27.3420733 L34.0001086,3.68509667 C34.0001086,1.67337997 32.3458817,0 30.2898803,0 L13.7475113,0 Z" id="Path"></path>
                        <path d="M22.8208439,14.0677695 L0.924926933,14.0677695 C0.414003918,14.0677695 0,14.4844303 0,14.9982732 C0,15.5121162 0.414003918,15.9284861 0.924926933,15.9284861 L23.0242295,15.9284861 L18.278952,21.4454601 C17.9390118,21.8333155 17.9766222,22.4248459 18.3619843,22.7664381 C18.7476357,23.1080301 19.3360941,23.0704957 19.6757451,22.6829313 L25.6607197,15.7518707 C25.8505076,15.5970778 25.9714396,15.3724533 25.9954524,15.1280433 C26.0197545,14.8830514 25.9459802,14.6386414 25.790331,14.4495146 C25.742016,14.3895759 25.6858898,14.3363295 25.6236879,14.29123 L19.6294553,8.27176069 C19.4567367,8.097764 19.2221056,8 18.9770592,8 C18.7325915,8 18.4979604,8.097764 18.3252418,8.27176069 C18.1528125,8.43993802 18.0550254,8.67038174 18.0535788,8.91188214 C18.051843,9.15309152 18.1461583,9.38528099 18.3159838,9.55578611 L18.3252418,9.56509697 L22.8208439,14.0677695 Z" id="Path"></path>
                    </g>
                </g>
            </g>
        </g>
    </g>
</svg>