<?xml version="1.0" encoding="UTF-8"?>
<svg width="22px" height="21px" viewBox="0 0 22 21" version="1.1" xmlns="http://www.w3.org/2000/svg" xmlns:xlink="http://www.w3.org/1999/xlink">
    <!-- Generator: sketchtool 52.6 (67491) - http://www.bohemiancoding.com/sketch -->
    <title>D9FBFD75-29EB-4826-8956-96189D847981</title>
    <desc>Created with sketchtool.</desc>
    <g id="Web-Desktop" stroke="none" stroke-width="1" fill="none" fill-rule="evenodd">
        <g id="01_Home_1200-Landing" transform="translate(-458.000000, -33.000000)" fill="#9D978F" fill-rule="nonzero">
            <g id="Header">
                <g id="City" transform="translate(444.000000, 18.000000)">
                    <g transform="translate(25.000000, 25.000000) rotate(-180.000000) translate(-25.000000, -25.000000) translate(0.000000, -0.000000)">
                        <path d="M36,14 L26,14 L26,28 L36,28 L36,14 Z M26,26 L26,35 L14,35 L14,14 L26,14 L26,15.999 L34,15.999 L34,26 L26,26 Z M24,15.999 L16,15.999 L16,33 L24,33 L24,15.999 Z M19,28 L21,28 L21,30 L19,30 L19,28 Z M19,24 L21,24 L21,26 L19,26 L19,24 Z M30,22 L30,24 L32,24 L32,22 L30,22 Z M19,16 L21,16 L21,20 L19,20 L19,16 Z M28,16 L28,19 L30,19 L30,16 L28,16 Z"></path>
                    </g>
                </g>
            </g>
        </g>
    </g>
</svg>