<?xml version="1.0" encoding="UTF-8"?>
<svg width="25px" height="22px" viewBox="0 0 25 22" version="1.1" xmlns="http://www.w3.org/2000/svg" xmlns:xlink="http://www.w3.org/1999/xlink">
    <!-- Generator: Sketch 63.1 (92452) - https://sketch.com -->
    <title>cloud</title>
    <desc>Created with Sketch.</desc>
    <g id="1200" stroke="none" stroke-width="1" fill="none" fill-rule="evenodd">
        <g id="01_Home_1200-Landing" transform="translate(-767.000000, -3853.000000)" fill="#FFFFFF" fill-rule="nonzero">
            <g id="2" transform="translate(199.000000, 3144.000000)">
                <g id="Button-(Black)-Copy-2" transform="translate(369.000000, 690.000000)">
                    <g id="cloud" transform="translate(199.000000, 19.000000)">
                        <path d="M12.9978709,11 C13.5669803,11 14.0293817,11.4393482 14.0293817,11.9849125 L14.0293817,11.9849125 L14.0293817,18.3838262 L14.6950365,17.6547978 C15.0659739,17.2444176 15.7163846,17.2009656 16.148298,17.5582378 C16.5751301,17.91551 16.6208621,18.5383223 16.2448434,18.9487025 L16.2448434,18.9487025 L13.775315,21.6620398 C13.577143,21.8744719 13.2976696,22 12.9978709,22 C12.6980722,22 12.4185989,21.8792999 12.2204268,21.6620398 L12.2204268,21.6620398 L9.7508985,18.9487025 C9.37996112,18.5383223 9.42569312,17.91551 9.85252518,17.5582378 C10.2793572,17.2009656 10.929768,17.2444176 11.3057867,17.6547978 L11.3057867,17.6547978 L11.9663601,18.3789982 L11.9663601,11.9849125 C11.9663601,11.4393482 12.4287615,11 12.9978709,11 Z M14.0960832,0 C18.0862913,0 19.6970624,3.4185022 20.0299878,4.59660164 C22.5856793,5.13027061 24.4902081,7.46633103 24.5,10.250472 C24.5,13.4222782 22.0079559,16 18.9430845,16 L18.9430845,16 L17.878213,16 C17.3249694,16 16.879437,15.5368156 16.879437,14.9679043 C16.879437,14.3989931 17.3249694,13.9358087 17.878213,13.9358087 L17.878213,13.9358087 L18.9430845,13.9358087 C20.9063647,13.9358087 22.502448,12.2844556 22.502448,10.250472 C22.502448,8.30207678 21.0336597,6.68596602 19.1585067,6.57016992 C18.6933905,6.53996224 18.3066095,6.18250472 18.2331701,5.70421649 C17.9002448,3.59974827 16.1621787,2.07426054 14.1009792,2.07426054 C12.0348837,2.07426054 10.3212974,3.60478288 9.96878825,5.70421649 C9.84638923,6.43926998 9.25397797,6.91755821 8.46083231,6.41913153 C7.84394125,6.02643172 7.13892289,5.82001259 6.41432069,5.82001259 C4.25520196,5.82001259 2.49755202,7.63750787 2.49755202,9.87287602 C2.49755202,12.1082442 4.25520196,13.9257395 6.41432069,13.9257395 L6.41432069,13.9257395 L7.52815177,13.9257395 C8.08139535,13.9257395 8.52692778,14.3889239 8.52692778,14.9578351 C8.52692778,15.5267464 8.08139535,15.9899308 7.52815177,15.9899308 L7.52815177,15.9899308 L6.41432069,15.9899308 C3.15361077,15.9899308 0.5,13.2410321 0.5,9.86784141 C0.5,6.49465072 3.15361077,3.74575205 6.40942472,3.74575205 C7.07037944,3.74575205 7.71664627,3.85651353 8.33353733,4.0780365 C8.70073439,3.1063562 10.3555692,0 14.0960832,0 Z" id="Combined-Shape"></path>
                    </g>
                </g>
            </g>
        </g>
    </g>
</svg>