<?xml version="1.0" encoding="UTF-8"?>
<svg width="18px" height="20px" viewBox="0 0 18 20" version="1.1" xmlns="http://www.w3.org/2000/svg" xmlns:xlink="http://www.w3.org/1999/xlink">
    <!-- Generator: sketchtool 52.6 (67491) - http://www.bohemiancoding.com/sketch -->
    <title>6317CFCB-D26A-4750-86B9-2DF8A6E19595</title>
    <desc>Created with sketchtool.</desc>
    <g id="Web-Desktop" stroke="none" stroke-width="1" fill="none" fill-rule="evenodd">
        <g id="01_Home_1200-Landing" transform="translate(-139.000000, -447.000000)" fill="#CCA66B" fill-rule="nonzero">
            <g id="1" transform="translate(0.000000, 86.000000)">
                <g id="Button-(Black)" transform="translate(115.000000, 341.000000)">
                    <path d="M30,20 L26,20 C24.8954305,20 24,20.8954305 24,22 L24,38 C24,39.1045695 24.8954305,40 26,40 L30,40 C31.1045695,40 32,39.1045695 32,38 L32,22 C32,20.8954305 31.1045695,20 30,20 Z M30,34 L26,34 L26,22 L30,22 L30,34 Z M30,36 L30,38 L26,38 L26,36 L30,36 Z M40,20 C41.1045695,20 42,20.8954305 42,22 L42,38 C42,39.1045695 41.1045695,40 40,40 L36,40 C34.8954305,40 34,39.1045695 34,38 L34,22 C34,20.8954305 34.8954305,20 36,20 L40,20 Z M36,22 L36,38 L40,38 L40,22 L36,22 Z M36,34 L40,34 L40,36 L36,36 L36,34 Z" id="Consultation"></path>
                </g>
            </g>
        </g>
    </g>
</svg>