<svg xmlns="http://www.w3.org/2000/svg" width="29" height="33" viewBox="0 0 29 33">
    <path fill="#CCA66B" d="M1.767 19.89C.744 19.579 0 18.627 0 17.5 0 16.12 1.12 15 2.5 15S5 16.12 5 17.5c0 .965-.547 1.803-1.348 2.22v3.432c0 4.942 2.916 7.963 6.5 7.963 3.585 0 6.502-3.02 6.502-7.963v-3.059c-1.542-.269-2.879-1.193-3.684-2.588l-6.054-8.49c-.966-1.673-.966-3.67 0-5.343.919-1.592 2.53-2.574 4.348-2.665C11.608.405 12.257 0 13 0c1.105 0 2 .895 2 2s-.895 2-2 2c-.78 0-1.457-.447-1.786-1.1-1.116.103-2.096.728-2.666 1.715-.625 1.082-.625 2.375 0 3.458l6.054 8.49c.625 1.082 1.744 1.729 2.994 1.729 1.25 0 2.369-.647 2.994-1.73l6.054-8.49c.625-1.082.625-2.375 0-3.457-.442-.766-1.132-1.314-1.94-1.568C24.354 3.619 23.722 4 23 4c-1.105 0-2-.895-2-2s.895-2 2-2c.79 0 1.472.457 1.797 1.121 1.455.313 2.71 1.218 3.479 2.55.965 1.674.965 3.671 0 5.344l-6.054 8.49c-.805 1.395-2.143 2.319-3.684 2.588v3.06c0 5.98-3.762 9.847-8.385 9.847-4.624 0-8.386-3.866-8.386-9.848v-3.261z"/>
</svg>
