<?xml version="1.0" encoding="UTF-8"?>
<svg width="33px" height="26px" viewBox="0 0 33 26" version="1.1" xmlns="http://www.w3.org/2000/svg" xmlns:xlink="http://www.w3.org/1999/xlink">
    <!-- Generator: Sketch 63.1 (92452) - https://sketch.com -->
    <title>profile icon</title>
    <desc>Created with Sketch.</desc>
    <g id="1200" stroke="none" stroke-width="1" fill="none" fill-rule="evenodd">
        <g id="01_Home_1200-Landing" transform="translate(-783.000000, -4884.000000)" fill="#CCA66B" fill-rule="nonzero">
            <g id="5" transform="translate(240.000000, 4002.000000)">
                <g id="3" transform="translate(0.000000, 860.000000)">
                    <g id="profile-icon" transform="translate(560.000000, 35.000000) rotate(-180.000000) translate(-560.000000, -35.000000) translate(525.000000, 0.000000)">
                        <path d="M49.79725,32.5787184 C49.8861309,31.9949806 49.9329883,31.4058786 49.9375,30.815767 C49.9743027,26.0111942 46.0261621,22.0871505 41.1191523,22.0508588 C41.0617891,22.0508588 41.0044258,22.0508588 40.9470625,22.0514951 C38.9683516,22.0549029 37.048873,22.7127913 35.5,23.9184466 C34.3632402,23.0328689 33.0200371,22.4368883 31.5905312,22.183767 L31.2275312,24.1718835 C32.5710566,24.4142136 33.8095234,25.0451553 34.7832813,25.983301 L35.5051562,26.6648544 L36.2270312,25.983301 C37.4826426,24.757767 39.1834316,24.0700291 40.9563437,24.0709126 C44.7356172,24.0301456 47.8331055,26.996733 47.8747422,30.6970631 C47.8751934,30.7366311 47.8752578,30.776199 47.875,30.815767 C47.869457,31.4069515 47.8135762,31.9966214 47.7079375,32.5787184 L41.1564063,32.5787184 L37.8821875,36.9941748 L34.7997812,28.4389126 L31.4245,32.8452816 L29.4723437,29.9797282 L26.821,32.5787184 L23.2920625,32.5787184 C23.1864238,31.9966214 23.130543,31.4069515 23.125,30.815767 C23.1176523,29.8055534 23.3421426,28.8065728 23.7819062,27.8926602 L21.9184375,27.0253204 C21.3470605,28.2101505 21.0545078,29.5054806 21.0625,30.815767 C21.0670117,31.4059417 21.1138691,31.9950437 21.20275,32.5787184 L19,32.5787184 L19,34.5981359 L21.673,34.5981359 C22.4378652,36.9770097 23.9188047,39.0742379 25.92175,40.6149903 L35.5,48 L45.07825,40.6149903 C47.0811953,39.0742379 48.5621348,36.9770097 49.327,34.5981359 L52,34.5981359 L52,32.5787184 L49.79725,32.5787184 Z M34.1377188,32.6796893 L37.2428125,41.2945243 L42.2082812,34.5981359 L47.1438438,34.5981359 C46.4572891,36.3420291 45.3033848,37.8725583 43.803625,39.0287379 L35.5,45.4292816 L27.196375,39.0287379 C25.6966152,37.8725583 24.5427109,36.3420291 23.8561562,34.5981359 L27.6717812,34.5981359 L29.1485312,33.1532427 L31.3224063,36.3459417 L34.1377188,32.6796893 Z M24.9348438,23.6024078 L26.095,25.2714563 C25.5989688,25.6023883 25.1490215,25.9951019 24.7564375,26.4396893 L24.7564375,26.4396893 L23.1971875,25.1169709 C23.7072051,24.5408058 24.2912793,24.0317233 24.9348438,23.6024078 L24.9348438,23.6024078 Z M29.2650625,22.0858252 L29.4465625,24.097165 C28.8474062,24.1491019 28.2575957,24.2760097 27.691375,24.4747961 L27.691375,24.4747961 L26.9963125,22.5735146 C27.7282422,22.3169223 28.4906582,22.153034 29.2650625,22.0858252 L29.2650625,22.0858252 Z" transform="translate(35.500000, 35.025429) rotate(-180.000000) translate(-35.500000, -35.025429) "></path>
                    </g>
                </g>
            </g>
        </g>
    </g>
</svg>