<?xml version="1.0" encoding="UTF-8"?>
<svg width="22px" height="22px" viewBox="0 0 22 22" version="1.1" xmlns="http://www.w3.org/2000/svg" xmlns:xlink="http://www.w3.org/1999/xlink">
    <!-- Generator: Sketch 63.1 (92452) - https://sketch.com -->
    <title>Telegram</title>
    <desc>Created with Sketch.</desc>
    <g id="1200" stroke="none" stroke-width="1" fill="none" fill-rule="evenodd">
        <g id="03_Team_Detail_1200-Landing" transform="translate(-334.000000, -289.000000)">
            <g id="Button" transform="translate(315.000000, 270.000000)">
                <g id="Telegram" transform="translate(10.000000, 10.000000)">
                    <rect id="Rectangle" x="0" y="0" width="40" height="40" rx="1"></rect>
                    <g id="instagram-(3)-2" transform="translate(9.000000, 9.000000)" fill="#CCA66B" fill-rule="nonzero">
                        <g id="instagram-(3)">
                            <path d="M11.0036667,5.34106823 C7.88425,5.34106823 5.35883333,7.86430669 5.35883333,10.974898 C5.35883333,14.0882339 7.887,16.6087277 11.0036667,16.6087277 C14.1230833,16.6087277 16.6485,14.0854893 16.6485,10.974898 C16.6485,7.86156205 14.1203333,5.34106823 11.0036667,5.34106823 Z M11.0036667,14.6316725 C8.97875,14.6316725 7.33975,12.9949526 7.33975,10.974898 C7.33975,8.9548434 8.97966667,7.31812346 11.0036667,7.31812346 C13.0276667,7.31812346 14.6675837,8.9548434 14.6675837,10.974898 C14.6685,12.9949526 13.0285833,14.6316725 11.0036667,14.6316725 L11.0036667,14.6316725 Z" id="Shape"></path>
                            <path d="M15.5356667,0.0695308642 C13.5116667,-0.0247017544 8.49841667,-0.0201273554 6.47258333,0.0695308642 C4.69241667,0.152784925 3.12216667,0.581863548 1.85625,1.84531254 C-0.259416667,3.9568551 0.011,6.80213125 0.011,10.974898 C0.011,15.2455569 -0.227333333,18.0249617 1.85625,20.1044834 C3.98016667,22.223345 6.87225,21.9461365 11.0036667,21.9461365 C15.2423333,21.9461365 16.7053333,21.9488811 18.2040833,21.3697622 C20.2418333,20.5802209 21.78,18.7623548 21.9303333,15.4971488 C22.0256667,13.4761793 22.0201667,8.47361663 21.9303333,6.45173229 C21.7488333,2.59734373 19.67625,0.259825861 15.5356667,0.0695308642 Z M18.7394167,18.707462 C17.3525,20.0916751 15.4284167,19.9681663 10.9770833,19.9681663 C6.39375,19.9681663 4.55583333,20.0358674 3.21475,18.6937388 C1.67016667,17.1594854 1.94975,14.6957141 1.94975,10.9602599 C1.94975,5.90554906 1.42999825,2.26524237 6.51291667,2.0054165 C7.68075,1.96424691 8.0245,1.95052372 10.96425,1.95052372 L11.0055,1.97797011 C15.8904167,1.97797011 19.723,1.46746719 19.9530833,6.53956075 C20.0053333,7.69688369 20.01725,8.04453801 20.01725,10.9739831 C20.0163333,15.495319 20.1025,17.3406316 18.7394167,18.707462 Z" id="Shape"></path>
                            <ellipse id="Oval" cx="16.8721667" cy="5.11875244" rx="1.31908333" ry="1.31651202"></ellipse>
                        </g>
                    </g>
                </g>
            </g>
        </g>
    </g>
</svg>