<svg xmlns="http://www.w3.org/2000/svg" width="32" height="32" viewBox="0 0 32 32">
    <path fill="#CCA66B" d="M13 32V10H4c-2.21 0-4 1.79-4 4v14c0 2.21 1.79 4 4 4h9zm-2-20v18H4c-1.105 0-2-.895-2-2V14c0-1.105.895-2 2-2h7zm2 20v-2h14c1.598 0 2.904-1.249 2.995-2.824L30 27V5c0-1.598-1.249-2.904-2.824-2.995L27 2H16c-1.598 0-2.904 1.249-2.995 2.824L13 5v5h-2V5C11 2.311 13.122.118 15.783.005L16 0h11c2.689 0 4.882 2.122 4.995 4.783L32 5v22c0 2.689-2.122 4.882-4.783 4.995L27 32H13zm-5.5-8c-.828 0-1.5.672-1.5 1.5S6.672 27 7.5 27 9 26.328 9 25.5 8.328 24 7.5 24zm14 0c.828 0 1.5.672 1.5 1.5s-.672 1.5-1.5 1.5-1.5-.672-1.5-1.5.672-1.5 1.5-1.5z"/>
</svg>
