<?xml version="1.0" encoding="UTF-8"?>
<svg width="15px" height="21px" viewBox="0 0 15 21" version="1.1" xmlns="http://www.w3.org/2000/svg" xmlns:xlink="http://www.w3.org/1999/xlink">
    <!-- Generator: sketchtool 52.6 (67491) - http://www.bohemiancoding.com/sketch -->
    <title>D7E41610-F37F-47D9-9F9C-503169905A6F</title>
    <desc>Created with sketchtool.</desc>
    <g id="Web-Desktop" stroke="none" stroke-width="1" fill="none" fill-rule="evenodd">
        <g id="01_Home_1200-Landing" transform="translate(-671.000000, -33.000000)" fill="#FFFFFF" fill-rule="nonzero">
            <g id="Header">
                <g id="Phone" transform="translate(653.000000, 18.000000)">
                    <g transform="translate(25.000000, 25.000000) rotate(-180.000000) translate(-25.000000, -25.000000) translate(0.000000, -0.000000)">
                        <path d="M29,14 L20,14 C18.3431458,14 17,15.3431458 17,17 L17,32 C17,33.6568542 18.3431458,35 20,35 L29,35 C30.6568542,35 32,33.6568542 32,32 L32,17 C32,15.3431458 30.6568542,14 29,14 Z M20,16 L29,16 C29.5522847,16 30,16.4477153 30,17 L30,32 C30,32.5522847 29.5522847,33 29,33 L20,33 C19.4477153,33 19,32.5522847 19,32 L19,17 C19,16.4477153 19.4477153,16 20,16 Z M24.5,21 C25.3284271,21 26,20.3284271 26,19.5 C26,18.6715729 25.3284271,18 24.5,18 C23.6715729,18 23,18.6715729 23,19.5 C23,20.3284271 23.6715729,21 24.5,21 Z"></path>
                    </g>
                </g>
            </g>
        </g>
    </g>
</svg>