<?xml version="1.0" encoding="UTF-8"?>
<svg width="18px" height="18px" viewBox="0 0 18 18" version="1.1" xmlns="http://www.w3.org/2000/svg" xmlns:xlink="http://www.w3.org/1999/xlink">
    <!-- Generator: Sketch 63.1 (92452) - https://sketch.com -->
    <title>Call2</title>
    <desc>Created with Sketch.</desc>
    <g id="1200" stroke="none" stroke-width="1" fill="none" fill-rule="evenodd">
        <g id="02_Home_Detail_1200-Landing" transform="translate(-921.000000, -2214.000000)">
            <g id="CTA" transform="translate(215.000000, 1982.000000)">
                <g id="Button" transform="translate(685.000000, 212.000000)">
                    <g id="Call2" transform="translate(10.000000, 10.000000)">
                        <rect id="Rectangle" x="0" y="0" width="40" height="40" rx="1"></rect>
                        <text id="2" font-family="OpenSans-Extrabold, Open Sans" font-size="10" font-weight="600" fill="#CCA66B">
                            <tspan x="23" y="18">2</tspan>
                        </text>
                        <g id="call-(2)-2" transform="translate(11.000000, 11.000000)" fill="#CCA66B" fill-rule="nonzero">
                            <g id="call-(2)">
                                <path d="M15.6359271,11.1585521 C14.5951198,11.1585521 13.5731719,10.9957682 12.6047474,10.6757344 C12.1302083,10.5138802 11.5468516,10.6623646 11.2572318,10.9598203 L9.34575,12.4027839 C7.12897656,11.2194688 5.76348698,9.85442187 4.59633073,7.65429427 L5.99683854,5.79261719 C6.36070052,5.42924219 6.49121094,4.8984349 6.33484635,4.40038802 C6.0134401,3.4268724 5.85016927,2.40541146 5.85016927,1.36416146 C5.85021354,0.611955729 5.23825781,0 4.48609635,0 L1.36411719,0 C0.611955729,0 0,0.611955729 0,1.36411719 C0,9.98586198 7.01418229,17 15.6359271,17 C16.3880885,17 17.0000443,16.3880443 17.0000443,15.6358828 L17.0000443,12.522625 C17.0000443,11.7705078 16.3880443,11.1585521 15.6359271,11.1585521 Z" id="Path"></path>
                            </g>
                        </g>
                    </g>
                </g>
            </g>
        </g>
    </g>
</svg>