<?xml version="1.0" encoding="UTF-8"?>
<svg width="15px" height="14px" viewBox="0 0 15 14" version="1.1" xmlns="http://www.w3.org/2000/svg" xmlns:xlink="http://www.w3.org/1999/xlink">
    <!-- Generator: Sketch 63.1 (92452) - https://sketch.com -->
    <title>Plus</title>
    <desc>Created with Sketch.</desc>
    <g id="1200" stroke="none" stroke-width="1" fill="none" fill-rule="evenodd">
        <g id="01_Home_1200-Landing" transform="translate(-1058.000000, -7554.000000)" fill="#FFFFFF">
            <g id="9" transform="translate(94.000000, 7269.000000)">
                <g id="2" transform="translate(221.000000, 272.000000)">
                    <path d="M751.475325,13 C751.751467,13 751.975325,13.2238576 751.975325,13.5 L751.974935,19 L757.483117,19 C757.759259,19 757.983117,19.2238576 757.983117,19.5 L757.983117,20.5 C757.983117,20.7761424 757.759259,21 757.483117,21 L751.974935,21 L751.975325,26.5 C751.975325,26.7761424 751.751467,27 751.475325,27 L750.472727,27 C750.196585,27 749.972727,26.7761424 749.972727,26.5 L749.971935,21 L744.464935,21 C744.188793,21 743.964935,20.7761424 743.964935,20.5 L743.964935,19.5 C743.964935,19.2238576 744.188793,19 744.464935,19 L749.971935,19 L749.972727,13.5 C749.972727,13.2238576 750.196585,13 750.472727,13 L751.475325,13 Z" id="Plus"></path>
                </g>
            </g>
        </g>
    </g>
</svg>