<?xml version="1.0" encoding="UTF-8"?>
<svg width="19px" height="21px" viewBox="0 0 19 21" version="1.1" xmlns="http://www.w3.org/2000/svg" xmlns:xlink="http://www.w3.org/1999/xlink">
    <!-- Generator: Sketch 63.1 (92452) - https://sketch.com -->
    <title>viber</title>
    <desc>Created with Sketch.</desc>
    <g id="1200" stroke="none" stroke-width="1" fill="none" fill-rule="evenodd">
        <g id="02_Home_Detail_1200-Landing" transform="translate(-531.000000, -2214.000000)">
            <g id="CTA" transform="translate(215.000000, 1982.000000)">
                <g id="Button" transform="translate(295.000000, 212.000000)">
                    <g id="viber" transform="translate(10.000000, 10.000000)">
                        <rect id="Rectangle" x="0" y="0" width="40" height="40" rx="1"></rect>
                        <g transform="translate(11.000000, 10.000000)" fill-rule="nonzero">
                            <path d="M11.6059156,1.96642702e-12 C15.6700649,1.96642702e-12 18.9765173,3.29757422 18.9765173,7.35094336 L18.9765173,7.35094336 L18.9765173,10.5013535 C18.9765173,14.5547227 15.6700649,17.8522969 11.6058745,17.8522969 L11.6058745,17.8522969 L7.89042857,17.8522969 L4.83443074,20.900168 C4.61737013,21.1165254 4.23527273,20.9572617 4.23527273,20.6526387 L4.23527273,20.6526387 L4.23527273,17.1442852 C1.66908009,15.9295254 0.023482684,13.3470586 0.023482684,10.5013535 L0.023482684,10.5013535 L0.023482684,7.35094336 C0.023482684,3.29757422 3.32989394,1.96642702e-12 7.39412554,1.96642702e-12 L7.39412554,1.96642702e-12 Z M5.40204545,3.81921094 C4.95069264,3.92146289 4.53886147,4.1482793 4.21104978,4.47529688 C3.64343506,5.04139453 3.42649784,5.86744922 3.5837619,6.86416992 C3.84774675,8.53785352 4.66992857,10.8670488 6.18684416,12.3859805 L6.20757143,12.4064883 C7.72938095,13.9182832 10.0648593,14.7383496 11.7431104,15.0016699 C11.9545368,15.0348926 12.1581494,15.0513398 12.3534134,15.0513398 C13.0811299,15.0513398 13.690816,14.8223906 14.1384675,14.3760176 C14.4662792,14.049041 14.6937857,13.6383105 14.7962706,13.1882461 C14.8066753,13.1418574 14.8076623,13.0938691 14.799026,13.0471113 L14.4834697,11.3422559 C14.457355,11.2014082 14.347961,11.090625 14.2071472,11.0625293 L11.7253442,10.5675117 C11.6100693,10.544625 11.4912987,10.5805137 11.4082662,10.6632422 L10.3999913,11.6688633 C8.70117749,10.9097051 7.75833333,9.96733008 6.92874892,8.20033594 L7.93377489,7.19803711 C8.01672511,7.11526758 8.05275108,6.99656836 8.0297619,6.88180664 L7.53341775,4.4065957 C7.50524675,4.26619922 7.39416667,4.15701563 7.25294156,4.13101172 L5.54351732,3.81633984 C5.49671645,3.80776758 5.44851732,3.80866992 5.40204545,3.81921094 Z" id="Viber" fill="#CCA66B"></path>
                            <g id="Group" transform="translate(9.500000, 3.117188)" fill="#FFFFFF">
                                <path d="M0.701971861,2.83356445 C0.508147186,2.83356445 0.351006494,2.99028516 0.351006494,3.1835918 C0.351006494,3.37689844 0.508147186,3.53361914 0.701971861,3.53361914 C1.47611905,3.53361914 2.10591558,4.16173242 2.10591558,4.93381055 C2.10591558,5.1245332 2.26564719,5.28383789 2.45688095,5.28383789 C2.64811472,5.28383789 2.80784632,5.1245332 2.80784632,4.93381055 C2.80788745,3.77569336 1.86319264,2.83356445 0.701971861,2.83356445 Z" id="Path"></path>
                                <path d="M0.701971861,1.43337305 C0.572138528,1.43337305 0.441112554,1.44055078 0.312471861,1.45470117 C0.119798701,1.47590625 -0.0191645022,1.64886914 0.0020974026,1.84106836 C0.0233593074,2.03326758 0.197155844,2.17149023 0.3895,2.15061328 C0.492642857,2.13925195 0.59775974,2.13346875 0.701971861,2.13346875 C2.25022511,2.13346875 3.50981818,3.38969531 3.50981818,4.93381055 C3.50981818,5.03778516 3.50401948,5.14262109 3.49262771,5.24548828 C3.47165368,5.43502148 3.61287879,5.61097852 3.80300216,5.63185547 C3.99308442,5.65273242 4.16938961,5.51192578 4.19040476,5.32231055 C4.20459307,5.19401367 4.21179004,5.06333789 4.21179004,4.93381055 C4.21179004,3.00369727 2.6372987,1.43337305 0.701971861,1.43337305 Z" id="Path"></path>
                                <path d="M0.701971861,0.0332226563 C0.576538961,0.0332226563 0.449502165,0.0379804688 0.324480519,0.0474550781 C0.131190476,0.0620566406 -0.0136536797,0.230220703 0.000987012987,0.422953125 C0.0155865801,0.615726562 0.184777056,0.760183594 0.377491342,0.745582031 C0.484952381,0.737419922 0.594140693,0.733318359 0.701971861,0.733318359 C3.02437229,0.733318359 4.9137619,2.6176582 4.9137619,4.93385156 C4.9137619,5.26156641 4.87584416,5.58780469 4.80107792,5.90346094 C4.75818398,6.08433984 4.86988095,6.27235547 5.04972294,6.32149219 C5.23894156,6.37317187 5.43914069,6.2548418 5.48421429,6.06448828 C5.57148268,5.69612695 5.61573377,5.31574805 5.61573377,4.93385156 C5.61573377,2.23161914 3.41144589,0.0332226563 0.701971861,0.0332226563 Z" id="Path"></path>
                            </g>
                        </g>
                    </g>
                </g>
            </g>
        </g>
    </g>
</svg>