<?xml version="1.0" encoding="UTF-8"?>
<svg width="18px" height="18px" viewBox="0 0 18 18" version="1.1" xmlns="http://www.w3.org/2000/svg" xmlns:xlink="http://www.w3.org/1999/xlink">
    <!-- Generator: Sketch 63.1 (92452) - https://sketch.com -->
    <title>WhatsApp</title>
    <desc>Created with Sketch.</desc>
    <g id="1200" stroke="none" stroke-width="1" fill="none" fill-rule="evenodd">
        <g id="02_Home_Detail_1200-Landing" transform="translate(-336.000000, -2215.000000)">
            <g id="CTA" transform="translate(215.000000, 1982.000000)">
                <g id="Button" transform="translate(100.000000, 212.000000)">
                    <g id="WhatsApp" transform="translate(10.000000, 10.000000)">
                        <rect id="Rectangle" x="0" y="0" width="40" height="40" rx="1"></rect>
                        <g id="whatsapp-2" transform="translate(11.000000, 11.000000)" fill="#CCA66B" fill-rule="nonzero">
                            <g id="whatsapp">
                                <path d="M9.00225,0 C13.964625,0 18,4.037625 18,9 C18,13.962375 13.964625,18 9.00225,18 C7.171875,18 5.47425,17.4555 4.051125,16.51275 L4.051125,16.51275 L0.59175,17.618625 L1.713375,14.275125 C0.6345,12.7935 0,10.96875 0,9 C0,4.0365 4.035375,0 8.99775,0 L8.99775,0 Z M5.6115,4.116375 C5.26725,4.116375 4.908375,4.217625 4.69125,4.43925 C4.426875,4.70925 3.771,5.338125 3.771,6.629625 C3.771,7.921125 4.712625,9.169875 4.83975,9.34425 C4.9725,9.518625 6.67575,12.20625 9.320625,13.302 C11.388375,14.15925 12.002625,14.079375 12.472875,13.97925 C13.16025,13.83075 14.022,13.32225 14.239125,12.709125 C14.45625,12.094875 14.45625,11.57175 14.39325,11.460375 C14.329125,11.349 14.15475,11.286 13.890375,11.15325 C13.626,11.021625 12.340125,10.386 12.097125,10.301625 C11.858625,10.211625 11.631375,10.243125 11.451375,10.497375 C11.19825,10.85175 10.949625,11.21175 10.74825,11.428875 C10.589625,11.597625 10.330875,11.619 10.11375,11.529 C9.822375,11.4075 9.007875,11.12175 8.00325,10.227375 C7.22475,9.534375 6.696,8.6715 6.543,8.41275 C6.39,8.148375 6.52725,7.995375 6.64875,7.8525 C6.7815,7.68825 6.9075,7.57125 7.04025,7.41825 C7.173,7.26525 7.24725,7.185375 7.331625,7.005375 C7.421625,6.831 7.3575,6.651 7.293375,6.51825 C7.230375,6.3855 6.701625,5.094 6.4845,4.570875 C6.310125,4.1535 6.177375,4.13775 5.913,4.1265 C5.823,4.122 5.722875,4.116375 5.6115,4.116375 Z" id="Combined-Shape"></path>
                            </g>
                        </g>
                    </g>
                </g>
            </g>
        </g>
    </g>
</svg>