<svg xmlns="http://www.w3.org/2000/svg" width="82" height="57" viewBox="0 0 82 57">
    <g fill="none">
        <path fill="red" d="M80.31 8.893c-.944-3.478-3.714-6.218-7.226-7.155C66.667 0 40.999 0 40.999 0S15.332 0 8.916 1.672c-3.445.936-6.282 3.744-7.227 7.22C0 15.245 0 28.416 0 28.416s0 13.238 1.689 19.523c.945 3.477 3.714 6.218 7.227 7.154C15.4 56.831 41 56.831 41 56.831s25.667 0 32.084-1.672c3.513-.936 6.282-3.677 7.227-7.154C82 41.653 82 28.482 82 28.482s.068-13.238-1.69-19.59z" transform="translate(0 .044)"/>
        <path fill="#FFF" d="M32.827 40.584L54.171 28.415 32.827 16.247z" transform="translate(0 .044)"/>
    </g>
</svg>
